<?xml version="1.0" encoding="UTF-8" standalone="no"?>
<!-- Created with Inkscape (http://www.inkscape.org/) -->
<svg
   xmlns:dc="http://purl.org/dc/elements/1.1/"
   xmlns:cc="http://creativecommons.org/ns#"
   xmlns:rdf="http://www.w3.org/1999/02/22-rdf-syntax-ns#"
   xmlns:svg="http://www.w3.org/2000/svg"
   xmlns="http://www.w3.org/2000/svg"
   xmlns:xlink="http://www.w3.org/1999/xlink"
   xmlns:sodipodi="http://sodipodi.sourceforge.net/DTD/sodipodi-0.dtd"
   xmlns:inkscape="http://www.inkscape.org/namespaces/inkscape"
   width="64px"
   height="64px"
   id="svg2383"
   sodipodi:version="0.32"
   inkscape:version="0.46"
   sodipodi:docname="rubiks.svg"
   inkscape:output_extension="org.inkscape.output.svg.inkscape">
  <defs
     id="defs2385">
    <inkscape:perspective
       sodipodi:type="inkscape:persp3d"
       inkscape:vp_x="0 : 32 : 1"
       inkscape:vp_y="0 : 1000 : 0"
       inkscape:vp_z="64 : 32 : 1"
       inkscape:persp3d-origin="32 : 21.333333 : 1"
       id="perspective85" />
  </defs>
  <sodipodi:namedview
     id="base"
     pagecolor="#ffffff"
     bordercolor="#666666"
     borderopacity="1.0"
     inkscape:pageopacity="0.0"
     inkscape:pageshadow="2"
     inkscape:zoom="8"
     inkscape:cx="33.391396"
     inkscape:cy="32.091775"
     inkscape:current-layer="layer3"
     showgrid="true"
     inkscape:document-units="px"
     inkscape:grid-bbox="true"
     gridtolerance="10"
     objecttolerance="10"
     guidetolerance="10"
     inkscape:window-width="1024"
     inkscape:window-height="712"
     inkscape:window-x="-4"
     inkscape:window-y="-4">
    <inkscape:grid
       type="xygrid"
       id="grid2393"
       visible="true"
       enabled="false"
       empspacing="2" />
  </sodipodi:namedview>
  <metadata
     id="metadata2388">
    <rdf:RDF>
      <cc:Work
         rdf:about="">
        <dc:format>image/svg+xml</dc:format>
        <dc:type
           rdf:resource="http://purl.org/dc/dcmitype/StillImage" />
      </cc:Work>
    </rdf:RDF>
  </metadata>
  <g
     id="layer1"
     inkscape:label="Layer 1"
     inkscape:groupmode="layer"
     style="display:none">
    <image
       y="-0.29448184"
       x="-0.98185575"
       id="image3239"
       height="64.371948"
       width="65.834953"
       xlink:href="pastedpic_07262010_214243.png"
       style="opacity:0.5" />
  </g>
  <g
     inkscape:groupmode="layer"
     id="layer4"
     inkscape:label="Base"
     style="display:inline">
    <path
       sodipodi:type="arc"
       style="opacity:1;fill:#000000;fill-opacity:1;fill-rule:nonzero;stroke:none;stroke-width:1;stroke-linecap:butt;stroke-linejoin:miter;stroke-miterlimit:4;stroke-dasharray:none;stroke-dashoffset:0;stroke-opacity:1;display:inline"
       id="path3332"
       sodipodi:cx="-12.197592"
       sodipodi:cy="19.629049"
       sodipodi:rx="3.3587573"
       sodipodi:ry="3.3587573"
       d="M -8.8388345,19.629049 A 3.3587573,3.3587573 0 1 1 -15.556349,19.629049 A 3.3587573,3.3587573 0 1 1 -8.8388345,19.629049 z"
       transform="matrix(0.4603659,0,0,0.4603659,58.652936,1.4972305)" />
    <path
       transform="matrix(0.4208922,0,0,0.4208922,49.807704,-0.5897249)"
       d="M -8.8388345,19.629049 A 3.3587573,3.3587573 0 1 1 -15.556349,19.629049 A 3.3587573,3.3587573 0 1 1 -8.8388345,19.629049 z"
       sodipodi:ry="3.3587573"
       sodipodi:rx="3.3587573"
       sodipodi:cy="19.629049"
       sodipodi:cx="-12.197592"
       id="path3397"
       style="opacity:1;fill:#000000;fill-opacity:1;fill-rule:nonzero;stroke:none;stroke-width:1;stroke-linecap:butt;stroke-linejoin:miter;stroke-miterlimit:4;stroke-dasharray:none;stroke-dashoffset:0;stroke-opacity:1;display:inline"
       sodipodi:type="arc" />
    <path
       sodipodi:type="arc"
       style="opacity:1;fill:#000000;fill-opacity:1;fill-rule:nonzero;stroke:none;stroke-width:1;stroke-linecap:butt;stroke-linejoin:miter;stroke-miterlimit:4;stroke-dasharray:none;stroke-dashoffset:0;stroke-opacity:1;display:inline"
       id="path3399"
       sodipodi:cx="-12.197592"
       sodipodi:cy="19.629049"
       sodipodi:rx="3.3587573"
       sodipodi:ry="3.3587573"
       d="M -8.8388345,19.629049 A 3.3587573,3.3587573 0 1 1 -15.556349,19.629049 A 3.3587573,3.3587573 0 1 1 -8.8388345,19.629049 z"
       transform="matrix(0.4208922,0,0,0.4208922,48.216714,-1.0648123)" />
    <path
       transform="matrix(0.4044448,0,0,0.4044448,40.138484,-3.5041019)"
       d="M -8.8388345,19.629049 A 3.3587573,3.3587573 0 1 1 -15.556349,19.629049 A 3.3587573,3.3587573 0 1 1 -8.8388345,19.629049 z"
       sodipodi:ry="3.3587573"
       sodipodi:rx="3.3587573"
       sodipodi:cy="19.629049"
       sodipodi:cx="-12.197592"
       id="path3401"
       style="opacity:1;fill:#000000;fill-opacity:1;fill-rule:nonzero;stroke:none;stroke-width:1;stroke-linecap:butt;stroke-linejoin:miter;stroke-miterlimit:4;stroke-dasharray:none;stroke-dashoffset:0;stroke-opacity:1;display:inline"
       sodipodi:type="arc" />
    <path
       sodipodi:type="arc"
       style="opacity:1;fill:#000000;fill-opacity:1;fill-rule:nonzero;stroke:none;stroke-width:1;stroke-linecap:butt;stroke-linejoin:miter;stroke-miterlimit:4;stroke-dasharray:none;stroke-dashoffset:0;stroke-opacity:1;display:inline"
       id="path3403"
       sodipodi:cx="-12.197592"
       sodipodi:cy="19.629049"
       sodipodi:rx="3.3587573"
       sodipodi:ry="3.3587573"
       d="M -8.8388345,19.629049 A 3.3587573,3.3587573 0 1 1 -15.556349,19.629049 A 3.3587573,3.3587573 0 1 1 -8.8388345,19.629049 z"
       transform="matrix(0.4044448,0,0,0.4044448,38.635882,-3.912898)" />
    <path
       transform="matrix(0.3518132,0,0,0.3518132,30.613476,-5.5316543)"
       d="M -8.8388345,19.629049 A 3.3587573,3.3587573 0 1 1 -15.556349,19.629049 A 3.3587573,3.3587573 0 1 1 -8.8388345,19.629049 z"
       sodipodi:ry="3.3587573"
       sodipodi:rx="3.3587573"
       sodipodi:cy="19.629049"
       sodipodi:cx="-12.197592"
       id="path3405"
       style="opacity:1;fill:#000000;fill-opacity:1;fill-rule:nonzero;stroke:none;stroke-width:1;stroke-linecap:butt;stroke-linejoin:miter;stroke-miterlimit:4;stroke-dasharray:none;stroke-dashoffset:0;stroke-opacity:1;display:inline"
       sodipodi:type="arc" />
    <path
       sodipodi:type="arc"
       style="opacity:1;fill:#000000;fill-opacity:1;fill-rule:nonzero;stroke:none;stroke-width:1;stroke-linecap:butt;stroke-linejoin:miter;stroke-miterlimit:4;stroke-dasharray:none;stroke-dashoffset:0;stroke-opacity:1;display:inline"
       id="path3407"
       sodipodi:cx="-12.197592"
       sodipodi:cy="19.629049"
       sodipodi:rx="3.3587573"
       sodipodi:ry="3.3587573"
       d="M -8.8388345,19.629049 A 3.3587573,3.3587573 0 1 1 -15.556349,19.629049 A 3.3587573,3.3587573 0 1 1 -8.8388345,19.629049 z"
       transform="matrix(0.3518132,0,0,0.3518132,23.542408,1.1525009)" />
    <path
       transform="matrix(0.3518132,0,0,0.3518132,22.216583,2.4065103)"
       d="M -8.8388345,19.629049 A 3.3587573,3.3587573 0 1 1 -15.556349,19.629049 A 3.3587573,3.3587573 0 1 1 -8.8388345,19.629049 z"
       sodipodi:ry="3.3587573"
       sodipodi:rx="3.3587573"
       sodipodi:cy="19.629049"
       sodipodi:cx="-12.197592"
       id="path3409"
       style="opacity:1;fill:#000000;fill-opacity:1;fill-rule:nonzero;stroke:none;stroke-width:1;stroke-linecap:butt;stroke-linejoin:miter;stroke-miterlimit:4;stroke-dasharray:none;stroke-dashoffset:0;stroke-opacity:1;display:inline"
       sodipodi:type="arc" />
    <path
       sodipodi:type="arc"
       style="opacity:1;fill:#000000;fill-opacity:1;fill-rule:nonzero;stroke:none;stroke-width:1;stroke-linecap:butt;stroke-linejoin:miter;stroke-miterlimit:4;stroke-dasharray:none;stroke-dashoffset:0;stroke-opacity:1;display:inline"
       id="path3411"
       sodipodi:cx="-12.197592"
       sodipodi:cy="19.629049"
       sodipodi:rx="3.3587573"
       sodipodi:ry="3.3587573"
       d="M -8.8388345,19.629049 A 3.3587573,3.3587573 0 1 1 -15.556349,19.629049 A 3.3587573,3.3587573 0 1 1 -8.8388345,19.629049 z"
       transform="matrix(0.378129,0,0,0.378129,15.267203,8.7842476)" />
    <path
       transform="matrix(0.378129,0,0,0.378129,13.587824,10.342091)"
       d="M -8.8388345,19.629049 A 3.3587573,3.3587573 0 1 1 -15.556349,19.629049 A 3.3587573,3.3587573 0 1 1 -8.8388345,19.629049 z"
       sodipodi:ry="3.3587573"
       sodipodi:rx="3.3587573"
       sodipodi:cy="19.629049"
       sodipodi:cx="-12.197592"
       id="path3413"
       style="opacity:1;fill:#000000;fill-opacity:1;fill-rule:nonzero;stroke:none;stroke-width:1;stroke-linecap:butt;stroke-linejoin:miter;stroke-miterlimit:4;stroke-dasharray:none;stroke-dashoffset:0;stroke-opacity:1;display:inline"
       sodipodi:type="arc" />
    <path
       sodipodi:type="arc"
       style="opacity:1;fill:#000000;fill-opacity:1;fill-rule:nonzero;stroke:none;stroke-width:1;stroke-linecap:butt;stroke-linejoin:miter;stroke-miterlimit:4;stroke-dasharray:none;stroke-dashoffset:0;stroke-opacity:1;display:inline"
       id="path3415"
       sodipodi:cx="-12.197592"
       sodipodi:cy="19.629049"
       sodipodi:rx="3.3587573"
       sodipodi:ry="3.3587573"
       d="M -8.8388345,19.629049 A 3.3587573,3.3587573 0 1 1 -15.556349,19.629049 A 3.3587573,3.3587573 0 1 1 -8.8388345,19.629049 z"
       transform="matrix(0.4044448,0,0,0.4044448,6.2959396,17.106527)" />
    <path
       transform="matrix(0.4044448,0,0,0.4044448,11.809162,25.658099)"
       d="M -8.8388345,19.629049 A 3.3587573,3.3587573 0 1 1 -15.556349,19.629049 A 3.3587573,3.3587573 0 1 1 -8.8388345,19.629049 z"
       sodipodi:ry="3.3587573"
       sodipodi:rx="3.3587573"
       sodipodi:cy="19.629049"
       sodipodi:cx="-12.197592"
       id="path3417"
       style="opacity:1;fill:#000000;fill-opacity:1;fill-rule:nonzero;stroke:none;stroke-width:1;stroke-linecap:butt;stroke-linejoin:miter;stroke-miterlimit:4;stroke-dasharray:none;stroke-dashoffset:0;stroke-opacity:1;display:inline"
       sodipodi:type="arc" />
    <path
       sodipodi:type="arc"
       style="opacity:1;fill:#000000;fill-opacity:1;fill-rule:nonzero;stroke:none;stroke-width:1;stroke-linecap:butt;stroke-linejoin:miter;stroke-miterlimit:4;stroke-dasharray:none;stroke-dashoffset:0;stroke-opacity:1;display:inline"
       id="path3419"
       sodipodi:cx="-12.197592"
       sodipodi:cy="19.629049"
       sodipodi:rx="3.3587573"
       sodipodi:ry="3.3587573"
       d="M -8.8388345,19.629049 A 3.3587573,3.3587573 0 1 1 -15.556349,19.629049 A 3.3587573,3.3587573 0 1 1 -8.8388345,19.629049 z"
       transform="matrix(0.4044448,0,0,0.4044448,11.135202,24.575342)" />
    <path
       transform="matrix(0.3386553,0,0,0.3386553,15.304574,34.186921)"
       d="M -8.8388345,19.629049 A 3.3587573,3.3587573 0 1 1 -15.556349,19.629049 A 3.3587573,3.3587573 0 1 1 -8.8388345,19.629049 z"
       sodipodi:ry="3.3587573"
       sodipodi:rx="3.3587573"
       sodipodi:cy="19.629049"
       sodipodi:cx="-12.197592"
       id="path3421"
       style="opacity:1;fill:#000000;fill-opacity:1;fill-rule:nonzero;stroke:none;stroke-width:1;stroke-linecap:butt;stroke-linejoin:miter;stroke-miterlimit:4;stroke-dasharray:none;stroke-dashoffset:0;stroke-opacity:1;display:inline"
       sodipodi:type="arc" />
    <path
       sodipodi:type="arc"
       style="opacity:1;fill:#000000;fill-opacity:1;fill-rule:nonzero;stroke:none;stroke-width:1;stroke-linecap:butt;stroke-linejoin:miter;stroke-miterlimit:4;stroke-dasharray:none;stroke-dashoffset:0;stroke-opacity:1;display:inline"
       id="path3423"
       sodipodi:cx="-12.197592"
       sodipodi:cy="19.629049"
       sodipodi:rx="3.3587573"
       sodipodi:ry="3.3587573"
       d="M -8.8388345,19.629049 A 3.3587573,3.3587573 0 1 1 -15.556349,19.629049 A 3.3587573,3.3587573 0 1 1 -8.8388345,19.629049 z"
       transform="matrix(0.3386553,0,0,0.3386553,15.989584,35.358494)" />
    <path
       transform="matrix(0.3189185,0,0,0.3189185,19.571638,42.043579)"
       d="M -8.8388345,19.629049 A 3.3587573,3.3587573 0 1 1 -15.556349,19.629049 A 3.3587573,3.3587573 0 1 1 -8.8388345,19.629049 z"
       sodipodi:ry="3.3587573"
       sodipodi:rx="3.3587573"
       sodipodi:cy="19.629049"
       sodipodi:cx="-12.197592"
       id="path3425"
       style="opacity:1;fill:#000000;fill-opacity:1;fill-rule:nonzero;stroke:none;stroke-width:1;stroke-linecap:butt;stroke-linejoin:miter;stroke-miterlimit:4;stroke-dasharray:none;stroke-dashoffset:0;stroke-opacity:1;display:inline"
       sodipodi:type="arc" />
    <path
       sodipodi:type="arc"
       style="opacity:1;fill:#000000;fill-opacity:1;fill-rule:nonzero;stroke:none;stroke-width:1;stroke-linecap:butt;stroke-linejoin:miter;stroke-miterlimit:4;stroke-dasharray:none;stroke-dashoffset:0;stroke-opacity:1;display:inline"
       id="path3427"
       sodipodi:cx="-12.197592"
       sodipodi:cy="19.629049"
       sodipodi:rx="3.3587573"
       sodipodi:ry="3.3587573"
       d="M -8.8388345,19.629049 A 3.3587573,3.3587573 0 1 1 -15.556349,19.629049 A 3.3587573,3.3587573 0 1 1 -8.8388345,19.629049 z"
       transform="matrix(0.3452343,0,0,0.3452343,26.54385,45.294792)" />
    <path
       transform="matrix(0.3452343,0,0,0.3452343,27.648704,45.957705)"
       d="M -8.8388345,19.629049 A 3.3587573,3.3587573 0 1 1 -15.556349,19.629049 A 3.3587573,3.3587573 0 1 1 -8.8388345,19.629049 z"
       sodipodi:ry="3.3587573"
       sodipodi:rx="3.3587573"
       sodipodi:cy="19.629049"
       sodipodi:cx="-12.197592"
       id="path3429"
       style="opacity:1;fill:#000000;fill-opacity:1;fill-rule:nonzero;stroke:none;stroke-width:1;stroke-linecap:butt;stroke-linejoin:miter;stroke-miterlimit:4;stroke-dasharray:none;stroke-dashoffset:0;stroke-opacity:1;display:inline"
       sodipodi:type="arc" />
    <path
       sodipodi:type="arc"
       style="opacity:1;fill:#000000;fill-opacity:1;fill-rule:nonzero;stroke:none;stroke-width:1;stroke-linecap:butt;stroke-linejoin:miter;stroke-miterlimit:4;stroke-dasharray:none;stroke-dashoffset:0;stroke-opacity:1;display:inline"
       id="path3431"
       sodipodi:cx="-12.197592"
       sodipodi:cy="19.629049"
       sodipodi:rx="3.3587573"
       sodipodi:ry="3.3587573"
       d="M -8.8388345,19.629049 A 3.3587573,3.3587573 0 1 1 -15.556349,19.629049 A 3.3587573,3.3587573 0 1 1 -8.8388345,19.629049 z"
       transform="matrix(0.4110238,0,0,0.4110238,35.853701,48.853932)" />
    <path
       transform="matrix(0.4110238,0,0,0.4110238,37.157429,49.62733)"
       d="M -8.8388345,19.629049 A 3.3587573,3.3587573 0 1 1 -15.556349,19.629049 A 3.3587573,3.3587573 0 1 1 -8.8388345,19.629049 z"
       sodipodi:ry="3.3587573"
       sodipodi:rx="3.3587573"
       sodipodi:cy="19.629049"
       sodipodi:cx="-12.197592"
       id="path3433"
       style="opacity:1;fill:#000000;fill-opacity:1;fill-rule:nonzero;stroke:none;stroke-width:1;stroke-linecap:butt;stroke-linejoin:miter;stroke-miterlimit:4;stroke-dasharray:none;stroke-dashoffset:0;stroke-opacity:1;display:inline"
       sodipodi:type="arc" />
    <path
       sodipodi:type="arc"
       style="opacity:1;fill:#000000;fill-opacity:1;fill-rule:nonzero;stroke:none;stroke-width:1;stroke-linecap:butt;stroke-linejoin:miter;stroke-miterlimit:4;stroke-dasharray:none;stroke-dashoffset:0;stroke-opacity:1;display:inline"
       id="path3435"
       sodipodi:cx="-12.197592"
       sodipodi:cy="19.629049"
       sodipodi:rx="3.3587573"
       sodipodi:ry="3.3587573"
       d="M -8.8388345,19.629049 A 3.3587573,3.3587573 0 1 1 -15.556349,19.629049 A 3.3587573,3.3587573 0 1 1 -8.8388345,19.629049 z"
       transform="matrix(0.3458955,0,0,0.3458955,43.988021,55.686987)" />
    <path
       transform="matrix(0.3458955,0,0,0.3458955,52.488021,46.030737)"
       d="M -8.8388345,19.629049 A 3.3587573,3.3587573 0 1 1 -15.556349,19.629049 A 3.3587573,3.3587573 0 1 1 -8.8388345,19.629049 z"
       sodipodi:ry="3.3587573"
       sodipodi:rx="3.3587573"
       sodipodi:cy="19.629049"
       sodipodi:cx="-12.197592"
       id="path3437"
       style="opacity:1;fill:#000000;fill-opacity:1;fill-rule:nonzero;stroke:none;stroke-width:1;stroke-linecap:butt;stroke-linejoin:miter;stroke-miterlimit:4;stroke-dasharray:none;stroke-dashoffset:0;stroke-opacity:1;display:inline"
       sodipodi:type="arc" />
    <path
       sodipodi:type="arc"
       style="opacity:1;fill:#000000;fill-opacity:1;fill-rule:nonzero;stroke:none;stroke-width:1;stroke-linecap:butt;stroke-linejoin:miter;stroke-miterlimit:4;stroke-dasharray:none;stroke-dashoffset:0;stroke-opacity:1;display:inline"
       id="path3439"
       sodipodi:cx="-12.197592"
       sodipodi:cy="19.629049"
       sodipodi:rx="3.3587573"
       sodipodi:ry="3.3587573"
       d="M -8.8388345,19.629049 A 3.3587573,3.3587573 0 1 1 -15.556349,19.629049 A 3.3587573,3.3587573 0 1 1 -8.8388345,19.629049 z"
       transform="matrix(0.3458955,0,0,0.3458955,51.113021,47.624487)" />
    <path
       transform="matrix(0.3458955,0,0,0.3458955,60.300521,37.030737)"
       d="M -8.8388345,19.629049 A 3.3587573,3.3587573 0 1 1 -15.556349,19.629049 A 3.3587573,3.3587573 0 1 1 -8.8388345,19.629049 z"
       sodipodi:ry="3.3587573"
       sodipodi:rx="3.3587573"
       sodipodi:cy="19.629049"
       sodipodi:cx="-12.197592"
       id="path3441"
       style="opacity:1;fill:#000000;fill-opacity:1;fill-rule:nonzero;stroke:none;stroke-width:1;stroke-linecap:butt;stroke-linejoin:miter;stroke-miterlimit:4;stroke-dasharray:none;stroke-dashoffset:0;stroke-opacity:1;display:inline"
       sodipodi:type="arc" />
    <path
       sodipodi:type="arc"
       style="opacity:1;fill:#000000;fill-opacity:1;fill-rule:nonzero;stroke:none;stroke-width:1;stroke-linecap:butt;stroke-linejoin:miter;stroke-miterlimit:4;stroke-dasharray:none;stroke-dashoffset:0;stroke-opacity:1;display:inline"
       id="path3443"
       sodipodi:cx="-12.197592"
       sodipodi:cy="19.629049"
       sodipodi:rx="3.3587573"
       sodipodi:ry="3.3587573"
       d="M -8.8388345,19.629049 A 3.3587573,3.3587573 0 1 1 -15.556349,19.629049 A 3.3587573,3.3587573 0 1 1 -8.8388345,19.629049 z"
       transform="matrix(0.3458955,0,0,0.3458955,59.081771,38.530737)" />
    <path
       transform="matrix(0.3458955,0,0,0.3458955,66.675521,29.874487)"
       d="M -8.8388345,19.629049 A 3.3587573,3.3587573 0 1 1 -15.556349,19.629049 A 3.3587573,3.3587573 0 1 1 -8.8388345,19.629049 z"
       sodipodi:ry="3.3587573"
       sodipodi:rx="3.3587573"
       sodipodi:cy="19.629049"
       sodipodi:cx="-12.197592"
       id="path3445"
       style="opacity:1;fill:#000000;fill-opacity:1;fill-rule:nonzero;stroke:none;stroke-width:1;stroke-linecap:butt;stroke-linejoin:miter;stroke-miterlimit:4;stroke-dasharray:none;stroke-dashoffset:0;stroke-opacity:1;display:inline"
       sodipodi:type="arc" />
    <path
       sodipodi:type="arc"
       style="opacity:1;fill:#000000;fill-opacity:1;fill-rule:nonzero;stroke:none;stroke-width:1;stroke-linecap:butt;stroke-linejoin:miter;stroke-miterlimit:4;stroke-dasharray:none;stroke-dashoffset:0;stroke-opacity:1;display:inline"
       id="path3447"
       sodipodi:cx="-12.197592"
       sodipodi:cy="19.629049"
       sodipodi:rx="3.3587573"
       sodipodi:ry="3.3587573"
       d="M -8.8388345,19.629049 A 3.3587573,3.3587573 0 1 1 -15.556349,19.629049 A 3.3587573,3.3587573 0 1 1 -8.8388345,19.629049 z"
       transform="matrix(0.3458955,0,0,0.3458955,64.144271,22.718237)" />
    <path
       transform="matrix(0.3458955,0,0,0.3458955,63.769271,21.686987)"
       d="M -8.8388345,19.629049 A 3.3587573,3.3587573 0 1 1 -15.556349,19.629049 A 3.3587573,3.3587573 0 1 1 -8.8388345,19.629049 z"
       sodipodi:ry="3.3587573"
       sodipodi:rx="3.3587573"
       sodipodi:cy="19.629049"
       sodipodi:cx="-12.197592"
       id="path3449"
       style="opacity:1;fill:#000000;fill-opacity:1;fill-rule:nonzero;stroke:none;stroke-width:1;stroke-linecap:butt;stroke-linejoin:miter;stroke-miterlimit:4;stroke-dasharray:none;stroke-dashoffset:0;stroke-opacity:1;display:inline"
       sodipodi:type="arc" />
    <path
       sodipodi:type="arc"
       style="opacity:1;fill:#000000;fill-opacity:1;fill-rule:nonzero;stroke:none;stroke-width:1;stroke-linecap:butt;stroke-linejoin:miter;stroke-miterlimit:4;stroke-dasharray:none;stroke-dashoffset:0;stroke-opacity:1;display:inline"
       id="path3451"
       sodipodi:cx="-12.197592"
       sodipodi:cy="19.629049"
       sodipodi:rx="3.3587573"
       sodipodi:ry="3.3587573"
       d="M -8.8388345,19.629049 A 3.3587573,3.3587573 0 1 1 -15.556349,19.629049 A 3.3587573,3.3587573 0 1 1 -8.8388345,19.629049 z"
       transform="matrix(0.3645036,0,0,0.3645036,61.183745,13.259228)" />
    <path
       transform="matrix(0.3645036,0,0,0.3645036,60.589995,11.821728)"
       d="M -8.8388345,19.629049 A 3.3587573,3.3587573 0 1 1 -15.556349,19.629049 A 3.3587573,3.3587573 0 1 1 -8.8388345,19.629049 z"
       sodipodi:ry="3.3587573"
       sodipodi:rx="3.3587573"
       sodipodi:cy="19.629049"
       sodipodi:cx="-12.197592"
       id="path3453"
       style="opacity:1;fill:#000000;fill-opacity:1;fill-rule:nonzero;stroke:none;stroke-width:1;stroke-linecap:butt;stroke-linejoin:miter;stroke-miterlimit:4;stroke-dasharray:none;stroke-dashoffset:0;stroke-opacity:1;display:inline"
       sodipodi:type="arc" />
    <path
       style="fill:#000000;fill-opacity:1;fill-rule:evenodd;stroke:none;stroke-width:1;stroke-linecap:butt;stroke-linejoin:miter;stroke-miterlimit:4;stroke-dasharray:none;stroke-opacity:1"
       d="M 0.17691141,25.662072 L 0.453125,24.0625 L 8.15625,16.8125 L 10.625,17.375 L 9.84375,15.25 L 17.125,8.4531249 L 19.375,8.8749999 L 18.546875,7.1406249 L 25.46875,0.5624999 L 26.859375,0.3281249 L 33.96875,2.6874999 L 34.125,4.2968749 L 35.609375,3.1249999 L 43.453125,5.8437499 L 43.609375,7.5156249 L 45.125,6.3437499 L 53.421875,9.0312499 L 54.53125,10.234375 L 57.21875,18.453125 L 56.765625,19.90625 L 57.890625,20.078125 L 60.578125,27.96875 L 60.3125,29.0625 L 61,29.046875 L 63.453125,36.109375 L 63.265625,37.5 L 56.875,44.671875 L 55.609375,44.75 L 55.71875,46.109375 L 49.046875,53.671875 L 47.640625,53.71875 L 47.796875,55.140625 L 40.609375,63.28125 L 39.0625,63.375 L 31.5625,58.921875 L 31.265625,57.921875 L 30.0625,58.046875 L 22.84375,53.71875 L 22.5625,52.953125 L 21.703125,53.046875 L 15.183594,49.238281 L 14.785156,48.878906 L 10.90625,42.578125 L 10.953125,41.828125 L 10.28125,41.53125 L 5.734375,34.273437 L 5.9296875,33.59375 L 5.1289063,33.332031 L 0.17691141,25.662072 z"
       id="path3457"
       sodipodi:nodetypes="ccccccccccccccccccccccccccccccccccccccccccccccccc" />
  </g>
  <g
     inkscape:groupmode="layer"
     id="layer5"
     inkscape:label="Highlights"
     style="display:inline">
    <path
       style="fill:none;fill-rule:evenodd;stroke:#c0c0c0;stroke-width:0.15000001;stroke-linecap:round;stroke-linejoin:miter;stroke-miterlimit:4;stroke-dasharray:none;stroke-opacity:1"
       d="M 0.14330583,24.724112 L 7.3308058,28.349112"
       id="path3460" />
    <path
       id="path3462"
       d="M 8.4076164,28.922559 L 16.258029,32.989501"
       style="fill:none;fill-rule:evenodd;stroke:#c0c0c0;stroke-width:0.15000001;stroke-linecap:round;stroke-linejoin:miter;stroke-miterlimit:4;stroke-dasharray:none;stroke-opacity:1"
       sodipodi:nodetypes="cc" />
    <path
       sodipodi:nodetypes="cc"
       style="fill:none;fill-rule:evenodd;stroke:#c0c0c0;stroke-width:0.15000001;stroke-linecap:round;stroke-linejoin:miter;stroke-miterlimit:4;stroke-dasharray:none;stroke-opacity:1"
       d="M 17.246451,33.386171 L 26.290107,38.071831"
       id="path3464" />
    <path
       id="path3466"
       d="M 5.7778476,33.938382 L 12.807535,37.62351"
       style="fill:none;fill-rule:evenodd;stroke:#c0c0c0;stroke-width:0.14956938;stroke-linecap:round;stroke-linejoin:miter;stroke-miterlimit:4;stroke-dasharray:none;stroke-opacity:1" />
    <path
       sodipodi:nodetypes="cc"
       style="fill:none;fill-rule:evenodd;stroke:#c0c0c0;stroke-width:0.14956938;stroke-linecap:round;stroke-linejoin:miter;stroke-miterlimit:4;stroke-dasharray:none;stroke-opacity:1"
       d="M 13.860703,38.206469 L 21.538747,42.34087"
       id="path3468" />
    <path
       id="path3470"
       d="M 22.505467,42.74412 L 31.350555,47.507502"
       style="fill:none;fill-rule:evenodd;stroke:#c0c0c0;stroke-width:0.14956938;stroke-linecap:round;stroke-linejoin:miter;stroke-miterlimit:4;stroke-dasharray:none;stroke-opacity:1"
       sodipodi:nodetypes="cc" />
    <path
       style="fill:none;fill-rule:evenodd;stroke:#c0c0c0;stroke-width:0.15023354;stroke-linecap:round;stroke-linejoin:miter;stroke-miterlimit:4;stroke-dasharray:none;stroke-opacity:1"
       d="M 10.993092,42.114636 L 17.840369,45.93161"
       id="path3472" />
    <path
       id="path3474"
       d="M 18.866209,46.535425 L 26.345018,50.817745"
       style="fill:none;fill-rule:evenodd;stroke:#c0c0c0;stroke-width:0.15023354;stroke-linecap:round;stroke-linejoin:miter;stroke-miterlimit:4;stroke-dasharray:none;stroke-opacity:1"
       sodipodi:nodetypes="cc" />
    <path
       sodipodi:nodetypes="cc"
       style="fill:none;fill-rule:evenodd;stroke:#c0c0c0;stroke-width:0.15023354;stroke-linecap:round;stroke-linejoin:miter;stroke-miterlimit:4;stroke-dasharray:none;stroke-opacity:1"
       d="M 27.286654,51.235423 L 35.902223,56.169228"
       id="path3476" />
    <path
       id="path3478"
       d="M 9.5527537,16.013949 L 16.851741,19.220991"
       style="fill:none;fill-rule:evenodd;stroke:#c0c0c0;stroke-width:0.14217786;stroke-linecap:round;stroke-linejoin:miter;stroke-miterlimit:4;stroke-dasharray:none;stroke-opacity:1" />
    <path
       sodipodi:nodetypes="cc"
       style="fill:none;fill-rule:evenodd;stroke:#c0c0c0;stroke-width:0.14217786;stroke-linecap:round;stroke-linejoin:miter;stroke-miterlimit:4;stroke-dasharray:none;stroke-opacity:1"
       d="M 17.945255,19.728321 L 25.917437,23.32635"
       id="path3480" />
    <path
       id="path3482"
       d="M 26.92119,23.677284 L 36.105125,27.822694"
       style="fill:none;fill-rule:evenodd;stroke:#c0c0c0;stroke-width:0.14217786;stroke-linecap:round;stroke-linejoin:miter;stroke-miterlimit:4;stroke-dasharray:none;stroke-opacity:1"
       sodipodi:nodetypes="cc" />
    <path
       style="fill:none;fill-rule:evenodd;stroke:#c0c0c0;stroke-width:0.13450061;stroke-linecap:round;stroke-linejoin:miter;stroke-miterlimit:4;stroke-dasharray:none;stroke-opacity:1"
       d="M 18.343556,7.6574117 L 25.790436,10.470461"
       id="path3484" />
    <path
       id="path3486"
       d="M 26.906107,10.915465 L 35.039823,14.071468"
       style="fill:none;fill-rule:evenodd;stroke:#c0c0c0;stroke-width:0.13450061;stroke-linecap:round;stroke-linejoin:miter;stroke-miterlimit:4;stroke-dasharray:none;stroke-opacity:1"
       sodipodi:nodetypes="cc" />
    <path
       sodipodi:nodetypes="cc"
       style="fill:none;fill-rule:evenodd;stroke:#c0c0c0;stroke-width:0.13450061;stroke-linecap:round;stroke-linejoin:miter;stroke-miterlimit:4;stroke-dasharray:none;stroke-opacity:1"
       d="M 36.063914,14.379289 L 45.433935,18.015426"
       id="path3488" />
  </g>
  <g
     inkscape:groupmode="layer"
     id="layer3"
     inkscape:label="Colors"
     style="display:inline">
    <path
       style="fill:#00a000;fill-opacity:1;fill-rule:evenodd;stroke:none;stroke-width:1px;stroke-linecap:butt;stroke-linejoin:miter;stroke-opacity:1"
       d="M 25.96875,0.24999983 L 33.8125,2.7812498 L 26.15625,10.25 L 18.375,7.3749999 L 25.96875,0.24999983 z"
       id="path2451" />
    <path
       style="fill:#ffff00;fill-opacity:1;fill-rule:evenodd;stroke:none;stroke-width:1px;stroke-linecap:butt;stroke-linejoin:miter;stroke-opacity:1"
       d="M 34.8125,3.1249998 L 43.21875,5.8437498 L 35.375,13.75 L 27,10.625 L 34.8125,3.1249998 z"
       id="path3223" />
    <path
       style="fill:#00a000;fill-opacity:1;fill-rule:evenodd;stroke:none;stroke-width:1px;stroke-linecap:butt;stroke-linejoin:miter;stroke-opacity:1"
       d="M 44.28125,6.3124998 L 53.5,9.2812499 L 45.5,17.59375 L 36.375,14.15625 L 44.28125,6.3124998 z"
       id="path3225" />
    <path
       style="fill:#ffff00;fill-opacity:1;fill-rule:evenodd;stroke:none;stroke-width:1px;stroke-linecap:butt;stroke-linejoin:miter;stroke-opacity:1"
       d="M 35.40625,15.09375 L 44.59375,18.59375 L 36.1875,27.34375 L 27.125,23.34375 L 35.40625,15.09375 z"
       id="path3227" />
    <path
       style="fill:#0000ff;fill-opacity:1;fill-rule:evenodd;stroke:none;stroke-width:1px;stroke-linecap:butt;stroke-linejoin:miter;stroke-opacity:1"
       d="M 26.09375,11.53125 L 34.375,14.6875 L 26.125,22.90625 L 18.0625,19.375 L 26.09375,11.53125 z"
       id="path3229" />
    <path
       style="fill:#00a000;fill-opacity:1;fill-rule:evenodd;stroke:none;stroke-width:1px;stroke-linecap:butt;stroke-linejoin:miter;stroke-opacity:1"
       d="M 17.5,8.2187499 L 25.09375,11.09375 L 17.0625,18.96875 L 9.53125,15.6875 L 17.5,8.2187499 z"
       id="path3231" />
    <path
       style="fill:#ffffff;fill-opacity:1;fill-rule:evenodd;stroke:none;stroke-width:1px;stroke-linecap:butt;stroke-linejoin:miter;stroke-opacity:1"
       d="M 8.5625,16.5625 L 16.09375,19.78125 L 7.59375,28.125 L 0.25,24.375 L 8.5625,16.5625 z"
       id="path3233" />
    <path
       style="fill:#ff0000;fill-opacity:1;fill-rule:evenodd;stroke:none;stroke-width:1px;stroke-linecap:butt;stroke-linejoin:miter;stroke-opacity:1"
       d="M 17.0625,20.375 L 25.125,23.9375 L 16.46875,32.59375 L 8.5,28.53125 L 17.0625,20.375 z"
       id="path3235" />
    <path
       style="fill:#ff9300;fill-opacity:1;fill-rule:evenodd;stroke:none;stroke-width:1px;stroke-linecap:butt;stroke-linejoin:miter;stroke-opacity:1"
       d="M 26.125,24.40625 L 35.1875,28.34375 L 26.21875,37.5625 L 17.40625,33.0625 L 26.125,24.40625 z"
       id="path3237" />
    <path
       style="fill:#960000;fill-opacity:1;fill-rule:evenodd;stroke:none;stroke-width:1px;stroke-linecap:butt;stroke-linejoin:miter;stroke-opacity:1"
       d="M 54.25,10.125 L 57.40625,19 L 49.8125,27.28125 L 46.28125,18.40625 L 54.25,10.125 z"
       id="path3239" />
    <path
       style="fill:#000096;fill-opacity:1;fill-rule:evenodd;stroke:none;stroke-width:1px;stroke-linecap:butt;stroke-linejoin:miter;stroke-opacity:1"
       d="M 36.96875,28.0625 L 45.21875,19.40625 L 48.9375,28.25 L 40.96875,36.71875 L 36.96875,28.0625 z"
       id="path3241" />
    <path
       style="fill:#969600;fill-opacity:1;fill-rule:evenodd;stroke:none;stroke-width:1px;stroke-linecap:butt;stroke-linejoin:miter;stroke-opacity:1"
       d="M 35.84375,29.15625 L 40.03125,37.8125 L 31.65625,46.84375 L 27.0625,38.34375 L 35.84375,29.15625 z"
       id="path3243" />
    <path
       style="fill:#969696;fill-opacity:1;fill-rule:evenodd;stroke:none;stroke-width:1px;stroke-linecap:butt;stroke-linejoin:miter;stroke-opacity:1"
       d="M 57.71875,20.15625 L 60.65625,28.40625 L 53.46875,36.34375 L 50.1875,28.1875 L 57.71875,20.15625 z"
       id="path3245" />
    <path
       style="fill:#964b00;fill-opacity:1;fill-rule:evenodd;stroke:none;stroke-width:1px;stroke-linecap:butt;stroke-linejoin:miter;stroke-opacity:1"
       d="M 49.28125,29.3125 L 52.59375,37.34375 L 45.0625,45.6875 L 41.375,37.8125 L 49.28125,29.3125 z"
       id="path3247" />
    <path
       style="fill:#964b00;fill-opacity:1;fill-rule:evenodd;stroke:none;stroke-width:1px;stroke-linecap:butt;stroke-linejoin:miter;stroke-opacity:1"
       d="M 60.90625,29.40625 L 63.65625,36.875 L 56.71875,44.75 L 53.78125,37.25 L 60.90625,29.40625 z"
       id="path3249" />
    <path
       style="fill:#005e00;fill-opacity:1;fill-rule:evenodd;stroke:none;stroke-width:1px;stroke-linecap:butt;stroke-linejoin:miter;stroke-opacity:1"
       d="M 52.96875,38.1875 L 55.96875,45.6875 L 48.8125,53.78125 L 45.4375,46.59375 L 52.96875,38.1875 z"
       id="path3251" />
    <path
       style="fill:#969600;fill-opacity:1;fill-rule:evenodd;stroke:none;stroke-width:1px;stroke-linecap:butt;stroke-linejoin:miter;stroke-opacity:1"
       d="M 44.5,47.625 L 48,54.875 L 40.5,63.375 L 36.6875,56.3125 L 44.5,47.625 z"
       id="path3253" />
    <path
       style="fill:#960000;fill-opacity:1;fill-rule:evenodd;stroke:none;stroke-width:1px;stroke-linecap:butt;stroke-linejoin:miter;stroke-opacity:1"
       d="M 40.34375,38.84375 L 44.15625,46.65625 L 36.25,55.46875 L 32.125,47.8125 L 40.34375,38.84375 z"
       id="path3255" />
    <path
       style="fill:#000066;fill-opacity:1;fill-rule:evenodd;stroke:none;stroke-width:1px;stroke-linecap:butt;stroke-linejoin:miter;stroke-opacity:1"
       d="M 27.375,51.90625 L 35.6875,56.5625 L 39.71875,63.65625 L 31.3125,58.75 L 27.375,51.90625 z"
       id="path3257" />
    <path
       style="fill:#000066;fill-opacity:1;fill-rule:evenodd;stroke:none;stroke-width:1px;stroke-linecap:butt;stroke-linejoin:miter;stroke-opacity:1"
       d="M 22.5625,43.375 L 31.125,48.03125 L 35.3125,55.71875 L 26.75,50.90625 L 22.5625,43.375 z"
       id="path3259" />
    <path
       style="fill:#000066;fill-opacity:1;fill-rule:evenodd;stroke:none;stroke-width:1px;stroke-linecap:butt;stroke-linejoin:miter;stroke-opacity:1"
       d="M 17.3125,34.125 L 26.03125,38.5625 L 30.625,47.0625 L 21.9375,42.375 L 17.3125,34.125 z"
       id="path3261" />
    <path
       style="fill:#666600;fill-opacity:1;fill-rule:evenodd;stroke:none;stroke-width:1px;stroke-linecap:butt;stroke-linejoin:miter;stroke-opacity:1"
       d="M 8.28125,29.53125 L 16.28125,33.5625 L 21.0625,41.9375 L 13.125,37.65625 L 8.28125,29.53125 z"
       id="path3263" />
    <path
       style="fill:#000066;fill-opacity:1;fill-rule:evenodd;stroke:none;stroke-width:1px;stroke-linecap:butt;stroke-linejoin:miter;stroke-opacity:1"
       d="M 0.0625,25.375 L 7.3125,29 L 12.25,37.125 L 5.03125,33.21875 L 0.0625,25.375 z"
       id="path3265" />
    <path
       style="fill:#000066;fill-opacity:1;fill-rule:evenodd;stroke:none;stroke-width:1px;stroke-linecap:butt;stroke-linejoin:miter;stroke-opacity:1"
       d="M 5.625,34.125 L 12.9375,38.09375 L 17.375,45.53125 L 10.21875,41.4375 L 5.625,34.125 z"
       id="path3267" />
    <path
       style="fill:#663300;fill-opacity:1;fill-rule:evenodd;stroke:none;stroke-width:1px;stroke-linecap:butt;stroke-linejoin:miter;stroke-opacity:1"
       d="M 10.84375,42.5 L 17.8125,46.375 L 21.96875,53.1875 L 14.96875,49.0625 L 10.84375,42.5 z"
       id="path3269" />
    <path
       style="fill:#666600;fill-opacity:1;fill-rule:evenodd;stroke:none;stroke-width:1px;stroke-linecap:butt;stroke-linejoin:miter;stroke-opacity:1"
       d="M 13.84375,38.6875 L 21.5625,42.875 L 25.90625,50.375 L 18.15625,46 L 13.84375,38.6875 z"
       id="path3271" />
    <path
       style="fill:#666666;fill-opacity:1;fill-rule:evenodd;stroke:none;stroke-width:1px;stroke-linecap:butt;stroke-linejoin:miter;stroke-opacity:1"
       d="M 18.8125,46.96875 L 26.375,51.3125 L 30.4375,58.21875 L 22.8125,53.71875 L 18.8125,46.96875 z"
       id="path3273" />
  </g>
</svg>
