<?xml version="1.0" encoding="UTF-8" standalone="no"?>
<!-- Created with Inkscape (http://www.inkscape.org/) -->
<svg
   xmlns:dc="http://purl.org/dc/elements/1.1/"
   xmlns:cc="http://creativecommons.org/ns#"
   xmlns:rdf="http://www.w3.org/1999/02/22-rdf-syntax-ns#"
   xmlns:svg="http://www.w3.org/2000/svg"
   xmlns="http://www.w3.org/2000/svg"
   xmlns:sodipodi="http://sodipodi.sourceforge.net/DTD/sodipodi-0.dtd"
   xmlns:inkscape="http://www.inkscape.org/namespaces/inkscape"
   width="150"
   height="150"
   id="svg2487"
   sodipodi:version="0.32"
   inkscape:version="0.46"
   version="1.0"
   sodipodi:docname="image1.svg"
   inkscape:output_extension="org.inkscape.output.svg.inkscape">
  <defs
     id="defs2489">
    <inkscape:perspective
       sodipodi:type="inkscape:persp3d"
       inkscape:vp_x="0 : 75 : 1"
       inkscape:vp_y="0 : 1000 : 0"
       inkscape:vp_z="150 : 75 : 1"
       inkscape:persp3d-origin="75 : 50 : 1"
       id="perspective41" />
  </defs>
  <sodipodi:namedview
     id="base"
     pagecolor="#ffffff"
     bordercolor="#666666"
     borderopacity="1.0"
     gridtolerance="10000"
     guidetolerance="10"
     objecttolerance="10"
     inkscape:pageopacity="0.0"
     inkscape:pageshadow="2"
     inkscape:zoom="3.38"
     inkscape:cx="75"
     inkscape:cy="75"
     inkscape:document-units="px"
     inkscape:current-layer="layer1"
     showgrid="false"
     inkscape:window-width="1024"
     inkscape:window-height="712"
     inkscape:window-x="-4"
     inkscape:window-y="-4"
     inkscape:object-nodes="false" />
  <metadata
     id="metadata2492">
    <rdf:RDF>
      <cc:Work
         rdf:about="">
        <dc:format>image/svg+xml</dc:format>
        <dc:type
           rdf:resource="http://purl.org/dc/dcmitype/StillImage" />
      </cc:Work>
    </rdf:RDF>
  </metadata>
  <g
     inkscape:label="Layer 1"
     inkscape:groupmode="layer"
     id="layer1">
    <g
       style="display:inline"
       id="g2548"
       transform="matrix(0.390825,0,0,0.390825,-9.285059,-0.5319182)">
      <g
         style="display:inline"
         inkscape:label="Base"
         id="layer3">
        <path
           sodipodi:nodetypes="cccccccccccc"
           id="path37"
           d="M 161.25781,62.253906 L 163.67578,62.683594 L 166.23828,60.121094 L 203.96875,43.949219 L 201.51172,40.738281 L 158.83984,58.816406 L 94.433594,47.46875 L 92.101563,49.972656 L 93.167969,50.164063 L 153.83594,60.933594 L 156.50391,64.289063 L 161.25781,62.253906 z"
           style="fill:#333333;fill-opacity:1;fill-rule:nonzero;stroke:none;display:inline" />
        <path
           sodipodi:nodetypes="cccccccccccccccccccc"
           id="path39"
           d="M 109.14062,168.91797 L 113.30078,166.76953 L 112.71875,165.49609 L 110.16016,86.351563 L 113.84375,82.570313 L 156.41406,64.328125 L 156.50391,64.289063 L 156.42188,64.171875 L 153.83594,60.933594 L 106.20312,81.113281 L 39.820313,68.433594 L 36.492188,72.128906 L 40.691406,148.93359 L 41.371094,151.04297 L 37.167969,73.9375 L 103.56641,86.8125 L 106.28516,166.02734 L 41.371094,151.04297 L 44.402344,153.90234 L 109.14062,168.91797 z"
           style="fill:#333333;fill-opacity:1;fill-rule:nonzero;stroke:none;display:inline" />
        <path
           sodipodi:nodetypes="ccccccccccccccccc"
           id="path41"
           d="M 191.30859,350.71875 L 190.71875,277.60547 L 194.57812,274.49219 L 192.05078,272.01953 L 190.84375,269.64062 L 186.80078,272.39062 L 119.18359,254.08984 L 115.67969,257.16016 L 117.98047,328.32031 L 118.98047,331.17188 L 116.69531,259.76172 L 184.33594,278.26562 L 185.07812,351.4375 L 118.98047,331.17188 L 121.64844,333.26562 L 187.55859,353.51562 L 191.30859,350.71875 z"
           style="fill:#333333;fill-opacity:1;fill-rule:nonzero;stroke:none;display:inline" />
        <path
           sodipodi:nodetypes="ccccccccccc"
           id="path43"
           d="M 238.36719,75.945313 L 240.26562,76.28125 L 243.08203,73.65625 L 278.33984,56.5625 L 275.54297,52.929688 L 235.15625,72.261719 L 166.23828,60.121094 L 163.67578,62.683594 L 230.41406,74.53125 L 233.35547,78.375 L 238.36719,75.945313 z"
           style="fill:#333333;fill-opacity:1;fill-rule:nonzero;stroke:none;display:inline" />
        <path
           sodipodi:nodetypes="cccccccccccc"
           id="path47"
           d="M 315.77344,256.52734 L 318.23047,180.71484 L 354.875,155.92188 L 351.07031,150.98047 L 314.24219,175.51172 L 313.64062,175.38281 L 309.91406,178.39062 L 313.92578,183.62891 L 311.5625,259.55078 L 311.5625,259.61328 L 311.625,259.62891 L 315.77344,256.52734 z"
           style="fill:#333333;fill-opacity:1;fill-rule:nonzero;stroke:none;display:inline" />
        <path
           sodipodi:nodetypes="ccccccccccccccccccc"
           id="path49"
           d="M 118.09766,328.65625 L 117.98047,328.32031 L 115.67969,257.16016 L 119.18359,254.08984 L 116.43359,251.61719 L 115.72656,249.82812 L 111.92578,252.12891 L 48.75,235.03125 L 48.746094,235.03125 L 45.5625,238.05469 L 49.351563,307.35938 L 50.03125,310.03125 L 46.242188,240.48828 L 109.43359,257.77344 L 111.87891,328.99609 L 50.03125,310.03125 L 52.878906,312.14062 L 114.57031,331.09375 L 118.09766,328.65625 z"
           style="fill:#333333;fill-opacity:1;fill-rule:nonzero;stroke:none;display:inline" />
        <path
           sodipodi:nodetypes="ccccccccccccccccc"
           id="path51"
           d="M 267.12109,294.125 L 271.36719,290.95312 L 272.82031,211.4375 L 313.92578,183.62891 L 309.91406,178.39062 L 268.61328,205.90234 L 268.60938,205.90234 L 193.99219,188.59766 L 190.02734,192.07031 L 190.64844,269.26172 L 192.05078,272.01953 L 191.46094,194.53125 L 266.10938,212.0625 L 264.82812,291.65234 L 192.05078,272.01953 L 194.57812,274.49219 L 267.12109,294.125 z"
           style="fill:#333333;fill-opacity:1;fill-rule:nonzero;stroke:none;display:inline" />
        <path
           sodipodi:nodetypes="cccccccccc"
           id="path53"
           d="M 355.48047,225.74219 L 358.72656,153.31641 L 391.60547,131.07422 L 387.98047,126.39844 L 354.94141,148.40234 L 354.41016,148.29688 L 351.07031,150.98047 L 354.875,155.92188 L 351.70703,228.57031 L 355.48047,225.74219 z"
           style="fill:#333333;fill-opacity:1;fill-rule:nonzero;stroke:none;display:inline" />
        <path
           sodipodi:nodetypes="ccccccccccc"
           id="path55"
           d="M 283.21875,54.195313 L 284.90234,54.472656 L 287.4375,52.148438 L 318.71875,36.980469 L 316.05469,33.542969 L 279.79297,50.898438 L 213.17188,40.007813 L 210.85547,42.277344 L 275.54297,52.929688 L 278.33984,56.5625 L 283.21875,54.195313 z"
           style="fill:#333333;fill-opacity:1;fill-rule:nonzero;stroke:none;display:inline" />
        <path
           sodipodi:nodetypes="ccccccccccccccccccc"
           id="path57"
           d="M 268.61328,205.90234 L 309.91406,178.39062 L 314.19531,174.93359 L 272.98828,202.34766 L 274.52734,118.09375 L 316.69922,94.46875 L 312.57422,89.121094 L 270.19141,112.43359 L 193.375,97.761719 L 189.29688,101.63281 L 189.95312,183.25391 L 191.39062,185.67969 L 190.76562,103.72266 L 267.61719,118.625 L 266.25781,202.96484 L 191.39062,185.67969 L 193.99219,188.59766 L 268.60938,205.90234 L 268.61328,205.90234 z"
           style="fill:#333333;fill-opacity:1;fill-rule:nonzero;stroke:none;display:inline" />
        <path
           sodipodi:nodetypes="cccccccccccccccc"
           id="path59"
           d="M 313.17578,336.61719 L 315.50781,264.72656 L 351.35547,236.55469 L 347.69922,231.77734 L 347.21094,232.15625 L 315.77344,256.52734 L 311.625,259.62891 L 311.5625,259.61328 L 311.55469,259.79688 L 307.45703,262.97656 L 309.39453,265.35938 L 311.30078,268.03516 L 309.08203,339.33594 L 309.08203,339.38281 L 309.14453,339.39844 L 313.17578,336.61719 z"
           style="fill:#333333;fill-opacity:1;fill-rule:nonzero;stroke:none;display:inline" />
        <path
           sodipodi:nodetypes="cccccccccccc"
           id="path61"
           d="M 352.04297,302.46094 L 355.12891,233.58984 L 387.37891,208.24219 L 383.89453,203.71484 L 383.84766,203.75391 L 355.48047,225.74219 L 351.70703,228.57031 L 351.69922,228.67578 L 347.69922,231.77734 L 351.35547,236.55469 L 348.36719,305.01562 L 352.04297,302.46094 z"
           style="fill:#333333;fill-opacity:1;fill-rule:nonzero;stroke:none;display:inline" />
        <path
           sodipodi:nodetypes="cccccccccccccccc"
           id="path63"
           d="M 387.98047,126.39844 L 392.03906,123.14844 L 359.09766,145.0625 L 362.51562,68.796875 L 396.04297,50.015625 L 392.32422,45.25 L 358.62891,63.789063 L 287.4375,52.148438 L 284.90234,54.472656 L 354.67578,65.960938 L 358.58594,71 L 355.23828,147.62891 L 354.42578,148.28125 L 354.41016,148.29688 L 354.94141,148.40234 L 387.98047,126.39844 z"
           style="fill:#333333;fill-opacity:1;fill-rule:nonzero;stroke:none;display:inline" />
        <path
           sodipodi:nodetypes="cccccccccccccccccc"
           id="path65"
           d="M 186,186.74609 L 190.48047,184.14062 L 189.95312,183.25391 L 189.29688,101.63281 L 193.375,97.761719 L 233.35547,78.375 L 230.41406,74.53125 L 185.15625,96.191406 L 113.84375,82.570313 L 110.16016,86.351563 L 112.71875,165.49609 L 113.75,167.75391 L 111.20703,88.292969 L 182.54688,102.12891 L 183.375,183.82812 L 113.75,167.75391 L 116.58594,170.64453 L 186,186.74609 z"
           style="fill:#333333;fill-opacity:1;fill-rule:nonzero;stroke:none;display:inline" />
        <path
           sodipodi:nodetypes="ccccccccccccccccc"
           id="path67"
           d="M 314.24219,175.51172 L 351.07031,150.98047 L 355.23828,147.62891 L 318.51172,172.0625 L 321.10938,91.996094 L 358.58594,71 L 354.67578,65.960938 L 317.00781,86.683594 L 243.08203,73.65625 L 240.26562,76.28125 L 312.57422,89.121094 L 316.69922,94.46875 L 314.19531,174.93359 L 313.75391,175.28906 L 313.66016,175.36719 L 313.64062,175.38281 L 314.24219,175.51172 z"
           style="fill:#333333;fill-opacity:1;fill-rule:nonzero;stroke:none;display:inline" />
        <path
           sodipodi:nodetypes="cccccccccccccccccc"
           id="path69"
           d="M 186.80078,272.39062 L 190.84375,269.64062 L 190.64844,269.26172 L 190.02734,192.07031 L 193.99219,188.59766 L 191.39062,185.67969 L 190.48047,184.14062 L 186,186.74609 L 116.58594,170.64453 L 112.99609,174.05469 L 115.41797,249.04688 L 116.43359,251.61719 L 114.02734,176.34375 L 183.46484,192.65234 L 184.25,269.91406 L 116.43359,251.61719 L 119.18359,254.08984 L 186.80078,272.39062 z"
           style="fill:#333333;fill-opacity:1;fill-rule:nonzero;stroke:none;display:inline" />
        <path
           sodipodi:nodetypes="cccccccccccc"
           id="path71"
           d="M 208.69922,41.921875 L 210.85547,42.277344 L 213.17188,40.007813 L 246.80078,25.597656 L 244.45703,22.546875 L 206.00781,38.835938 L 143.53125,28.621094 L 141.41016,30.84375 L 142.43359,31.011719 L 201.51172,40.738281 L 203.96875,43.949219 L 208.69922,41.921875 z"
           style="fill:#333333;fill-opacity:1;fill-rule:nonzero;stroke:none;display:inline" />
        <path
           sodipodi:nodetypes="ccccccccccccccccccc"
           id="path73"
           d="M 111.92578,252.12891 L 115.72656,249.82812 L 115.41797,249.04688 L 112.99609,174.05469 L 116.58594,170.64453 L 113.75,167.75391 L 113.30078,166.76953 L 109.14062,168.91797 L 44.402344,153.90234 L 41.144531,157.24609 L 45.132813,230.16016 L 45.8125,232.5625 L 41.824219,159.38672 L 106.57812,174.59375 L 109.15625,249.65234 L 49.230469,233.48438 L 45.8125,232.5625 L 48.746094,235.03125 L 111.92578,252.12891 z"
           style="fill:#333333;fill-opacity:1;fill-rule:nonzero;stroke:none;display:inline" />
        <path
           id="path4014"
           d="M 143.53125,28.621094 L 142.43359,31.011719 L 141.41016,30.84375 L 143.53125,28.621094 z"
           style="opacity:1;fill:#2d2d2d;fill-opacity:1;fill-rule:evenodd;stroke:none;stroke-width:1.25px;stroke-linecap:butt;stroke-linejoin:miter;marker:none;marker-start:none;marker-mid:none;marker-end:none;stroke-miterlimit:4;stroke-dasharray:none;stroke-dashoffset:0;stroke-opacity:1;visibility:visible;display:inline;overflow:visible;enable-background:accumulate" />
        <path
           sodipodi:nodetypes="ccccccccccccccccccc"
           id="path45"
           d="M 269.83984,374.70312 L 271.21094,299.53906 L 311.30078,268.03516 L 309.39453,265.35938 L 307.45703,262.97656 L 307.45312,262.97656 L 271.36719,290.95312 L 267.12109,294.125 L 194.57812,274.49219 L 190.71875,277.60547 L 191.30859,350.71875 L 192.67578,353.76562 L 192.11719,280.39453 L 264.6875,300.24609 L 263.47656,375.47656 L 192.67578,353.76562 L 195.13281,355.84375 L 265.71094,377.52344 L 269.83984,374.70312 z"
           style="fill:#333333;fill-opacity:1;fill-rule:nonzero;stroke:none;display:inline" />
      </g>
      <g
         style="display:inline"
         inkscape:label="Lighted"
         id="g2571">
        <path
           d="M 39.820313,68.433594 L 106.20312,81.113281 L 103.56641,86.812496 L 37.167969,73.9375 L 39.820313,68.433594 z M 44.402344,153.90234 L 109.14062,168.91797 L 106.57812,174.59375 L 41.824219,159.38672 L 44.402344,153.90234 z M 48.75,235.03125 L 46.242188,240.48828 L 109.43359,257.77344 L 111.92578,252.12891 L 48.75,235.03125 z M 119.18359,254.08984 L 186.80078,272.39062 L 184.33594,278.26562 L 116.69531,259.76172 L 119.18359,254.08984 z M 113.84375,82.570313 L 185.15625,96.191408 L 182.54687,102.1289 L 111.20703,88.292969 L 113.84375,82.570313 z M 193.375,97.76172 L 270.19141,112.43359 L 267.61719,118.625 L 190.76562,103.72266 L 193.375,97.76172 z M 193.99218,188.59766 L 268.60938,205.90234 L 266.10938,212.0625 L 191.46094,194.53125 L 193.99218,188.59766 z M 267.12109,294.125 L 264.6875,300.2461 L 192.11719,280.39453 L 194.57812,274.49219 L 267.12109,294.125 z M 354.72266,148.04688 L 354.94141,148.40234 L 352.97266,153.45313 L 351.07031,150.98047 L 354.72266,148.04688 z M 313.96875,175.11719 L 314.24218,175.51172 L 312.01172,181.1289 L 309.91406,178.39062 L 313.96875,175.11719 z M 307.45703,262.97656 L 309.39453,265.35938 L 311.55469,259.79688 L 307.45703,262.97656 z M 351.37891,228.92188 L 349.42578,234.03125 L 347.69922,231.77734 L 351.37891,228.92188 z M 287.4375,52.148438 L 358.62891,63.789063 L 356.71875,68.59375 L 354.67578,65.960938 L 286.36719,54.714844 L 287.4375,52.148438 z M 317.00781,86.683594 L 314.82813,92.046872 L 312.57422,89.121094 L 241.84375,76.5625 L 243.08203,73.65625 L 317.00781,86.683594 z M 235.15625,72.261719 L 232.82812,77.6875 L 230.41406,74.53125 L 164.98047,62.914063 L 166.23828,60.121094 L 235.15625,72.261719 z M 279.79297,50.898438 L 277.74219,55.78125 L 275.54297,52.929687 L 212.08594,42.480469 L 213.17187,40.007813 L 279.79297,50.898438 z M 143.53125,28.621094 L 206.00781,38.835938 L 203.82812,43.769531 L 201.51172,40.738282 L 142.43359,31.011718 L 143.53125,28.621094 z M 158.83984,58.816406 L 156.42188,64.171875 L 153.83594,60.933594 L 93.167968,50.164062 L 94.433592,47.46875 L 158.83984,58.816406 z M 116.58594,170.64453 L 186,186.7461 L 183.46484,192.65234 L 114.02734,176.34375 L 116.58594,170.64453 z"
           style="fill:#393939;fill-opacity:1;fill-rule:evenodd;stroke:none;stroke-width:1px;stroke-linecap:butt;stroke-linejoin:miter;stroke-opacity:1"
           id="path3735" />
        <path
           d="M 36.492187,72.128906 L 37.167969,73.9375 L 41.371094,151.04297 L 40.691406,148.93359 L 36.492187,72.128906 z M 45.5625,238.05469 L 46.242188,240.48828 L 50.03125,310.03125 L 49.351563,307.35938 L 45.5625,238.05469 z M 115.67969,257.16016 L 116.69531,259.76172 L 118.98047,331.17188 L 117.98047,328.32031 L 115.67969,257.16016 z M 112.99609,174.05469 L 114.02734,176.34375 L 116.43359,251.61718 L 115.41797,249.04687 L 112.99609,174.05469 z M 110.16016,86.351563 L 111.20703,88.292969 L 113.75,167.7539 L 112.71875,165.4961 L 110.16016,86.351563 z M 190.71875,277.60547 L 192.11719,280.39453 L 192.67578,353.76562 L 191.30859,350.71875 L 190.71875,277.60547 z M 190.02734,192.07031 L 191.46094,194.53125 L 192.05078,272.01953 L 190.64844,269.26172 L 190.02734,192.07031 z M 189.29687,101.63282 L 190.76562,103.72266 L 191.39062,185.67969 L 189.95312,183.25391 L 189.29687,101.63282 z M 41.144531,157.2461 L 41.824219,159.38672 L 45.8125,232.5625 L 45.132813,230.16016 L 41.144531,157.2461 z"
           style="fill:#181818;fill-opacity:1;fill-rule:evenodd;stroke:none;stroke-width:1px;stroke-linecap:butt;stroke-linejoin:miter;stroke-opacity:1"
           id="path3743" />
        <path
           sodipodi:nodetypes="cccccccccccccccccccccccccccccccccccccccccccccccccccccccccccccccccccccccccccccccccccccccccccccccccccccccccccccccccccc"
           d="M 106.20313,81.11328 L 110.16016,86.35156 L 113.84375,82.570313 L 156.42187,64.171875 L 153.83594,60.933594 L 106.20313,81.11328 z M 186.80078,272.39062 L 190.71875,277.60547 L 194.57813,274.49218 L 192.05078,272.01953 L 190.84375,269.64062 L 186.80078,272.39062 z M 119.18359,254.08984 L 115.67969,257.16016 L 111.92578,252.12891 L 115.72656,249.82813 L 116.43359,251.61719 L 119.18359,254.08984 z M 109.14062,168.91797 L 112.99609,174.05469 L 116.58594,170.64453 L 113.75,167.75391 L 113.30078,166.76953 L 109.14062,168.91797 z M 190.48047,184.14062 L 186,186.7461 L 190.02734,192.07031 L 193.99218,188.59766 L 191.39062,185.67969 L 190.48047,184.14062 z M 392.32422,45.25 L 396.04297,50.015625 L 362.51562,68.796875 L 358.62891,63.789063 L 392.32422,45.25 z M 312.57422,89.121096 L 316.69922,94.468752 L 274.52734,118.09375 L 270.19141,112.43359 L 312.57422,89.121096 z M 387.98047,126.39844 L 391.60547,131.07422 L 358.72656,153.31641 L 354.94141,148.40234 L 387.98047,126.39844 z M 351.07031,150.98047 L 354.875,155.92188 L 318.23047,180.71484 L 314.24219,175.51172 L 351.07031,150.98047 z M 309.91406,178.39062 L 313.92578,183.62891 L 272.82031,211.4375 L 268.61328,205.90234 L 309.91406,178.39062 z M 307.45312,262.97656 L 311.30078,268.03516 L 271.21094,299.53906 L 267.1211,294.125 L 271.36718,290.95313 L 307.45312,262.97656 z M 351.35547,236.55469 L 315.50781,264.72656 L 311.625,259.62891 L 315.77344,256.52734 L 347.69922,231.77734 L 351.35547,236.55469 z M 383.89453,203.71484 L 387.3789,208.24218 L 355.12891,233.58984 L 351.49219,228.83594 L 351.69922,228.67578 L 355.48047,225.74219 L 383.89453,203.71484 z M 275.54297,52.929688 L 278.33984,56.5625 L 243.08203,73.65625 L 240.26562,76.28125 L 238.36719,75.945313 L 238.08203,76.082031 L 235.15625,72.261719 L 275.54297,52.929688 z M 230.41406,74.53125 L 233.35547,78.375 L 193.375,97.761719 L 189.29687,101.63282 L 185.15625,96.191408 L 230.41406,74.53125 z M 316.05469,33.542969 L 318.71875,36.980469 L 287.4375,52.148438 L 284.90234,54.472656 L 283.21875,54.195313 L 282.57422,54.507813 L 279.79297,50.898438 L 316.05469,33.542969 z M 244.45703,22.546875 L 246.80078,25.597656 L 213.17188,40.007813 L 210.85547,42.277344 L 208.69922,41.921875 L 208.45312,42.03125 L 206.00781,38.835938 L 244.45703,22.546875 z M 201.51172,40.738282 L 203.96875,43.949219 L 166.23828,60.121094 L 163.67578,62.683594 L 161.48438,62.292969 L 158.83984,58.816406 L 201.51172,40.738282 z M 354.67578,65.960938 L 358.58594,71 L 321.10938,91.996096 L 317.00782,86.683592 L 354.67578,65.960938 z"
           style="fill:#353535;fill-opacity:1;fill-rule:evenodd;stroke:none;stroke-width:1px;stroke-linecap:butt;stroke-linejoin:miter;stroke-opacity:1"
           id="path3745" />
        <path
           d="M 110.16016,86.35156 L 103.56641,86.812496 L 106.20313,81.11328 L 110.16016,86.35156 z M 111.92578,252.12891 L 115.67969,257.16016 L 109.43359,257.77344 L 111.92578,252.12891 z M 109.14062,168.91797 L 112.99609,174.05469 L 106.57812,174.59375 L 109.14062,168.91797 z M 186.80078,272.39062 L 190.71875,277.60547 L 184.33594,278.26562 L 186.80078,272.39062 z M 186,186.7461 L 190.02734,192.07031 L 183.46484,192.65234 L 186,186.7461 z M 270.19141,112.43359 L 274.52734,118.09375 L 267.61718,118.625 L 270.19141,112.43359 z M 267.1211,294.125 L 271.21094,299.53906 L 264.6875,300.2461 L 267.1211,294.125 z M 358.6289,63.789062 L 362.51562,68.796875 L 357.16406,69.171875 L 356.71875,68.59375 L 358.6289,63.789062 z M 354.94141,148.40234 L 358.72656,153.31641 L 353.22656,153.78125 L 352.97266,153.45312 L 354.94141,148.40234 z M 315.50781,264.72656 L 311.625,259.62891 L 309.39453,265.35938 L 315.50781,264.72656 z M 351.37891,228.92188 L 351.49219,228.83594 L 355.1289,233.58984 L 349.51172,234.14062 L 349.42578,234.03125 L 351.37891,228.92188 z M 279.79297,50.898438 L 282.57422,54.507813 L 279.48438,56.007813 L 277.98828,56.105469 L 277.74218,55.78125 L 279.79297,50.898438 z M 235.15625,72.261719 L 238.08203,76.082031 L 234.78125,77.683594 L 232.92578,77.8125 L 232.82813,77.6875 L 235.15625,72.261719 z M 206.00781,38.835938 L 208.45312,42.03125 L 204.17969,43.859375 L 203.91016,43.875 L 203.82812,43.769531 L 206.00781,38.835938 z M 158.83984,58.816406 L 161.48438,62.292969 L 161.25781,62.253906 L 156.84766,64.140625 L 156.42188,64.171875 L 158.83984,58.816406 z M 317.00781,86.683594 L 321.10938,91.996096 L 315.1289,92.433592 L 314.82812,92.046875 L 317.00781,86.683594 z M 268.61328,205.90234 L 272.82031,211.4375 L 266.10938,212.0625 L 268.61328,205.90234 z M 185.15625,96.191408 L 189.29687,101.63282 L 182.54688,102.12891 L 185.15625,96.191408 z M 314.24218,175.51172 L 318.23047,180.71484 L 312.10938,181.25782 L 312.01172,181.1289 L 314.24218,175.51172 z"
           style="fill:#373737;fill-opacity:1;stroke:none;stroke-width:0.2;stroke-linecap:round;stroke-linejoin:bevel;stroke-miterlimit:10;stroke-dasharray:0.8, 0;stroke-opacity:1"
           id="path2961" />
        <path
           d="M 103.56641,86.8125 L 110.16016,86.35156 L 112.71875,165.49609 L 106.28516,166.02734 L 103.56641,86.8125 z M 106.57813,174.59375 L 109.15625,249.65234 L 115.41797,249.04688 L 112.9961,174.05469 L 106.57813,174.59375 z M 109.43359,257.77344 L 115.67969,257.16016 L 117.98047,328.32031 L 111.87891,328.99609 L 109.43359,257.77344 z M 182.54687,102.1289 L 189.29687,101.63282 L 189.95312,183.25391 L 183.375,183.82812 L 182.54687,102.1289 z M 274.52734,118.09375 L 272.98828,202.34766 L 266.25781,202.96484 L 267.61718,118.625 L 274.52734,118.09375 z M 266.10938,212.0625 L 272.82031,211.4375 L 271.36718,290.95313 L 264.82812,291.65234 L 266.10938,212.0625 z M 264.6875,300.2461 L 271.21094,299.53906 L 269.83984,374.70312 L 263.47656,375.47656 L 264.6875,300.2461 z M 184.33594,278.26562 L 190.71875,277.60547 L 191.30859,350.71875 L 185.07812,351.4375 L 184.33594,278.26562 z M 183.46484,192.65234 L 190.02734,192.07031 L 190.64844,269.26172 L 184.25,269.91406 L 183.46484,192.65234 z M 357.16406,69.171875 L 362.51562,68.796875 L 359.09766,145.0625 L 355.33594,145.375 L 358.58594,71 L 357.16406,69.171875 z M 315.1289,92.433592 L 321.10938,91.996096 L 318.51172,172.0625 L 314.27344,172.42969 L 316.69922,94.46875 L 315.1289,92.433592 z M 353.22656,153.78125 L 358.72656,153.31641 L 355.48047,225.74219 L 351.8125,226.09766 L 354.875,155.92188 L 353.22656,153.78125 z M 312.10938,181.25782 L 318.23047,180.71484 L 315.77344,256.52734 L 311.64453,256.94922 L 313.92578,183.62891 L 312.10938,181.25782 z M 309.15234,337.08203 L 313.17578,336.61719 L 315.50781,264.72656 L 309.39453,265.35938 L 311.30078,268.03516 L 309.15234,337.08203 z M 349.51172,234.14062 L 355.1289,233.58984 L 352.04297,302.46094 L 348.46094,302.85547 L 351.35547,236.55469 L 349.51172,234.14062 z M 232.92578,77.8125 L 234.78125,77.683594 L 233.35547,78.375 L 232.92578,77.8125 z M 277.98828,56.105469 L 279.48438,56.007813 L 278.33984,56.5625 L 277.98828,56.105469 z M 156.42188,64.171875 L 156.84766,64.140625 L 156.50391,64.289063 L 156.42188,64.171875 z M 203.91016,43.875 L 204.17969,43.859375 L 203.96875,43.949219 L 203.91016,43.875 z"
           style="fill:#242424;fill-opacity:1;fill-rule:evenodd;stroke:none;stroke-width:1px;stroke-linecap:butt;stroke-linejoin:miter;stroke-opacity:1"
           id="path3737"
           sodipodi:nodetypes="ccccccccccccccccccccccccccccccccccccccccccccccccccccccccccccccccccccccccccccccccccccccccccccccccc" />
        <path
           d="M 39.820313,68.433594 L 37.167969,73.9375 L 36.492187,72.128906 L 39.820313,68.433594 z M 119.18359,254.08984 L 116.69531,259.76172 L 115.67969,257.16016 L 119.18359,254.08984 z M 194.57812,274.49219 L 192.11719,280.39453 L 190.71875,277.60547 L 194.57812,274.49219 z M 116.58594,170.64453 L 114.02734,176.34375 L 112.9961,174.05469 L 116.58594,170.64453 z M 193.99218,188.59766 L 191.46094,194.53125 L 190.02734,192.07031 L 193.99218,188.59766 z M 193.375,97.76172 L 190.76562,103.72266 L 189.29687,101.63282 L 193.375,97.76172 z M 113.84375,82.570313 L 111.20703,88.292969 L 110.16016,86.35156 L 113.84375,82.570313 z M 287.4375,52.148438 L 286.36719,54.714844 L 284.90234,54.472656 L 287.4375,52.148438 z M 243.08203,73.65625 L 241.84375,76.5625 L 240.26562,76.28125 L 243.08203,73.65625 z M 213.17187,40.007813 L 212.08594,42.480469 L 210.85547,42.277344 L 213.17187,40.007813 z M 48.746094,235.03125 L 46.242187,240.48828 L 45.5625,238.05469 L 48.746094,235.03125 z M 166.23828,60.121094 L 164.98047,62.914063 L 163.67578,62.683594 L 166.23828,60.121094 z M 44.402344,153.90234 L 41.824218,159.38672 L 41.144531,157.24609 L 44.402344,153.90234 z M 94.433594,47.46875 L 93.167969,50.164063 L 92.101563,49.972656 L 94.433594,47.46875 z"
           style="fill:#2d2d2d;fill-opacity:1;fill-rule:evenodd;stroke:none;stroke-width:1px;stroke-linecap:butt;stroke-linejoin:miter;stroke-opacity:1"
           id="path3733" />
        <path
           d="M 106.28516,166.02734 L 112.71875,165.4961 L 109.14062,168.91797 L 106.28516,166.02734 z M 106.28516,166.02734 L 109.14062,168.91797 L 44.402344,153.90234 L 41.371094,151.04297 L 106.28516,166.02734 z M 111.87891,328.99609 L 114.57031,331.09375 L 52.878906,312.14062 L 50.03125,310.03125 L 111.87891,328.99609 z M 184.25,269.91406 L 190.64844,269.26172 L 186.80078,272.39062 L 184.25,269.91406 z M 190.64844,269.26172 L 190.84375,269.64062 L 186.80078,272.39062 L 190.64844,269.26172 z M 184.25,269.91406 L 186.80078,272.39062 L 119.18359,254.08984 L 116.43359,251.61718 L 184.25,269.91406 z M 112.71875,165.49609 L 113.30078,166.76953 L 109.14062,168.91797 L 112.71875,165.49609 z M 113.75,167.75391 L 116.58594,170.64453 L 186,186.74609 L 183.375,183.82812 L 113.75,167.75391 z M 189.95312,183.25391 L 190.48047,184.14062 L 186,186.74609 L 189.95312,183.25391 z M 264.82813,291.65234 L 271.36718,290.95313 L 267.1211,294.125 L 264.82813,291.65234 z M 264.82812,291.65234 L 267.1211,294.125 L 194.57812,274.49219 L 192.05078,272.01953 L 264.82812,291.65234 z M 263.47656,375.47656 L 269.83984,374.70313 L 265.71094,377.52344 L 263.47656,375.47656 z M 192.67578,353.76562 L 263.47656,375.47656 L 265.71094,377.52344 L 195.13281,355.84375 L 192.67578,353.76562 z M 314.27344,172.42969 L 314.19531,174.93359 L 313.96875,175.11719 L 314.24219,175.51172 L 318.51172,172.0625 L 314.27344,172.42969 z M 355.33594,145.375 L 359.09766,145.0625 L 354.94141,148.40234 L 354.72266,148.04687 L 355.23828,147.6289 L 355.33594,145.375 z M 355.48047,225.74219 L 351.69922,228.67578 L 351.8125,226.09766 L 355.48047,225.74219 z M 311.64453,256.94922 L 315.77344,256.52734 L 311.55469,259.79688 L 311.64453,256.94922 z M 313.17578,336.61719 L 309.14453,339.39844 L 309.15234,337.08203 L 313.17578,336.61719 z M 309.14453,339.39844 L 309.08203,339.38281 L 309.15234,337.08203 L 309.14453,339.39844 z M 352.04297,302.46094 L 348.36719,305.01562 L 348.46094,302.85547 L 352.04297,302.46094 z M 392.03906,123.14844 L 387.98047,126.39844 L 354.94141,148.40234 L 359.09766,145.0625 L 392.03906,123.14844 z M 314.24219,175.51172 L 351.07031,150.98047 L 355.23828,147.6289 L 318.51172,172.0625 L 314.24219,175.51172 z M 191.39062,185.67969 L 266.25782,202.96484 L 268.60938,205.90234 L 193.99218,188.59766 L 191.39062,185.67969 z M 266.25782,202.96484 L 272.98828,202.34766 L 268.61328,205.90234 L 266.25782,202.96484 z M 313.75391,175.28906 L 309.91406,178.39062 L 268.61328,205.90234 L 272.98828,202.34766 L 313.75391,175.28906 z M 189.95312,183.25391 L 186,186.74609 L 183.375,183.82813 L 189.95312,183.25391 z M 185.07813,351.4375 L 191.30859,350.71875 L 187.55859,353.51562 L 185.07813,351.4375 z M 118.98047,331.17188 L 185.07812,351.4375 L 187.55859,353.51562 L 121.64844,333.26562 L 118.98047,331.17188 z M 109.15625,249.65234 L 115.41797,249.04687 L 111.92578,252.12891 L 109.15625,249.65234 z M 109.15625,249.65234 L 111.92578,252.12891 L 48.746094,235.03125 L 45.8125,232.5625 L 109.15625,249.65234 z M 111.87891,328.99609 L 117.98047,328.32031 L 114.57031,331.09375 L 111.87891,328.99609 z M 114.57031,331.09375 L 118.09766,328.65625 L 117.98047,328.32031 L 114.57031,331.09375 z M 115.41797,249.04688 L 115.72656,249.82813 L 111.92578,252.12891 L 115.41797,249.04688 z M 354.72266,148.04687 L 354.94141,148.40233 L 354.41016,148.29687 L 354.72266,148.04687 z M 314.24218,175.51171 L 313.64061,175.3828 L 313.96874,175.11717 L 314.24218,175.51171 z"
           style="fill:#141414;fill-opacity:1;fill-rule:evenodd;stroke:none;stroke-width:1px;stroke-linecap:butt;stroke-linejoin:miter;stroke-opacity:1"
           id="path3739" />
      </g>
      <g
         style="display:inline"
         inkscape:label="Faces"
         id="layer2">
        <path
           d="M 312.57422,89.121094 L 238.36719,75.945313 L 193.375,97.761719 L 270.19141,112.43359 L 312.57422,89.121094 z M 201.51172,40.738281 L 138.84375,30.421875 L 94.43359,47.46875 L 158.83984,58.816406 L 201.51172,40.738281 z M 153.83594,60.933594 L 89.23437,49.464844 L 39.820313,68.433594 L 106.20312,81.113281 L 153.83594,60.933594 z M 392.32422,45.25 L 323.46484,34.679688 L 287.4375,52.148438 L 358.62891,63.789063 L 392.32422,45.25 z M 244.45703,22.546875 L 183.66406,13.214844 L 143.53125,28.621094 L 206.00781,38.835938 L 244.45703,22.546875 z M 275.54297,52.929688 L 208.69922,41.921875 L 166.23828,60.121094 L 235.15625,72.261719 L 275.54297,52.929688 z M 354.67578,65.960938 L 283.21875,54.195313 L 243.08203,73.65625 L 317.00781,86.683594 L 354.67578,65.960938 z M 316.05469,33.542969 L 251.41797,23.617188 L 213.17188,40.007813 L 279.79297,50.898438 L 316.05469,33.542969 z M 230.41406,74.53125 L 161.25781,62.253906 L 113.84375,82.570313 L 185.15625,96.191406 L 230.41406,74.53125 z"
           style="fill:#ff0000;fill-opacity:1;fill-rule:nonzero;stroke:none;display:inline"
           id="path93" />
        <path
           d="M 267.61719,118.625 L 190.76562,103.72266 L 191.39062,185.67969 L 266.25781,202.96484 L 267.61719,118.625 z M 103.56641,86.8125 L 37.167969,73.9375 L 41.371094,151.04297 L 106.28516,166.02734 L 103.56641,86.8125 z M 106.57812,174.59375 L 41.824219,159.38672 L 45.8125,232.5625 L 109.15625,249.65234 L 106.57812,174.59375 z M 183.46484,192.65234 L 114.02734,176.34375 L 116.43359,251.61719 L 184.25,269.91406 L 183.46484,192.65234 z M 184.33594,278.26562 L 116.69531,259.76172 L 118.98047,331.17188 L 185.07812,351.4375 L 184.33594,278.26562 z M 266.10938,212.0625 L 191.46094,194.53125 L 192.05078,272.01953 L 264.82812,291.65234 L 266.10938,212.0625 z M 182.54688,102.12891 L 111.20703,88.292969 L 113.75,167.75391 L 183.375,183.82812 L 182.54688,102.12891 z M 264.6875,300.24609 L 192.11719,280.39453 L 192.67578,353.76562 L 263.47656,375.47656 L 264.6875,300.24609 z M 109.43359,257.77344 L 46.242188,240.48828 L 50.03125,310.03125 L 111.87891,328.99609 L 109.43359,257.77344 z"
           style="fill:#ababab;fill-opacity:1;fill-rule:nonzero;stroke:none;display:inline"
           id="path75" />
        <path
           d="M 355.23828,147.62891 L 358.58594,71 L 321.10938,91.996094 L 318.51172,172.0625 L 355.23828,147.62891 z M 348.33594,305.71484 L 351.35547,236.55469 L 315.50781,264.72656 L 313.17578,336.61719 L 348.33594,305.71484 z M 387.79297,200.69141 L 391.60547,131.07422 L 358.72656,153.31641 L 355.48047,225.74219 L 387.79297,200.69141 z M 383.75,274.59766 L 387.37891,208.24219 L 355.12891,233.58984 L 352.04297,302.46094 L 383.75,274.59766 z M 311.55469,259.79688 L 313.92578,183.62891 L 272.82031,211.4375 L 271.36719,290.95312 L 311.55469,259.79688 z M 392.03906,123.14844 L 396.04297,50.015625 L 362.51562,68.796875 L 359.09766,145.0625 L 392.03906,123.14844 z M 309.05469,340.23828 L 311.30078,268.03516 L 271.21094,299.53906 L 269.83984,374.70312 L 309.05469,340.23828 z M 351.69922,228.67578 L 354.875,155.92188 L 318.23047,180.71484 L 315.77344,256.52734 L 351.69922,228.67578 z M 314.19531,174.93359 L 316.69922,94.46875 L 274.52734,118.09375 L 272.98828,202.34766 L 314.19531,174.93359 z"
           style="fill:#005b00;fill-opacity:1;fill-rule:nonzero;stroke:none;display:inline"
           id="path21" />
      </g>
    </g>
  </g>
</svg>
